<?xml version="1.0" encoding="UTF-8"?>
<svg xmlns="http://www.w3.org/2000/svg" width="873" height="656" viewBox="0 0 873 656" role="img" aria-label="BHCN Studio logo">
<title>BHCN Studio logo</title>
<desc>Vector trace converted from the provided PNG logo. Transparent background.</desc>
  <path fill="#121316" fill-rule="evenodd" d="M210.44,508.00 L207.00,510.51 L200.00,517.40 L196.00,520.51 L188.00,528.44 L51.00,528.46 L49.00,527.26 L42.00,520.51 L39.00,518.48 L35.56,515.00 L35.56,448.00 L36.00,447.56 L67.00,447.50 L68.00,447.56 L68.44,448.00 L68.56,496.00 L70.00,496.78 L173.00,496.48 L175.00,495.34 L177.44,493.00 L177.44,485.00 L172.00,479.56 L129.00,479.44 L98.56,449.00 L98.57,448.00 L99.00,447.57 L166.00,447.44 L170.44,443.00 L170.44,434.00 L167.00,430.54 L165.00,429.92 L157.00,429.66 L37.00,429.76 L35.56,429.00 L35.56,399.00 L36.00,398.56 L187.00,398.54 L195.00,405.52 L203.44,414.00 L203.47,452.00 L199.62,456.00 L199.55,457.00 L210.44,468.00 Z M836.45,511.00 L825.00,522.48 L818.00,528.44 L806.00,528.47 L805.01,528.00 L801.00,524.66 L799.00,523.49 L796.00,520.56 L794.00,519.48 L791.00,516.61 L789.00,515.48 L786.00,512.53 L784.00,511.44 L775.00,503.62 L774.00,503.35 L771.00,500.52 L768.00,498.49 L765.00,495.52 L763.00,494.44 L760.00,491.52 L758.00,490.40 L755.00,487.52 L753.00,486.44 L744.00,478.53 L742.00,477.47 L739.00,474.52 L737.00,473.46 L734.00,470.52 L732.00,469.40 L728.00,465.69 L726.00,464.49 L723.00,461.52 L721.00,460.45 L712.00,452.61 L710.00,451.48 L706.00,447.56 L704.00,446.43 L701.00,443.70 L698.00,441.64 L697.64,442.00 L697.44,528.00 L697.00,528.44 L696.00,528.50 L665.00,528.44 L664.56,528.00 L664.56,414.00 L675.00,403.51 L681.00,398.55 L698.00,398.64 L702.00,402.48 L704.00,403.58 L708.00,407.46 L710.00,408.52 L713.00,411.41 L715.00,412.52 L718.00,415.48 L720.00,416.54 L723.00,419.47 L725.00,420.53 L728.00,423.42 L730.00,424.52 L739.00,432.47 L741.00,433.53 L744.00,436.48 L746.00,437.57 L749.00,440.48 L751.00,441.62 L755.00,445.47 L757.00,446.54 L761.00,450.30 L762.00,450.71 L766.00,454.21 L767.00,454.60 L776.00,462.36 L778.00,463.52 L781.00,466.45 L783.00,467.58 L786.00,470.41 L788.00,471.53 L791.00,474.48 L794.00,476.52 L802.00,483.27 L803.00,483.27 L803.27,483.00 L803.29,400.00 L803.47,399.00 L804.00,398.55 L811.00,398.53 L813.00,399.53 L816.00,402.41 L817.00,402.74 L821.00,406.22 L822.00,406.54 L830.00,413.41 L831.00,413.68 L834.00,416.42 L835.00,416.60 L836.44,418.00 Z M638.99,498.00 L638.00,499.49 L632.00,505.37 L627.00,509.63 L608.00,528.45 L481.00,528.32 L460.00,507.51 L454.55,503.00 L454.15,427.00 L454.55,425.00 L469.00,410.52 L482.00,398.54 L639.00,398.61 L639.39,399.00 L609.00,429.45 L607.00,429.76 L501.00,429.71 L491.00,438.55 L487.75,442.00 L487.59,485.00 L495.00,492.30 L500.00,496.48 L501.00,496.93 L617.00,497.00 L638.00,496.78 Z M390.00,188.62 L376.00,189.26 L289.00,189.13 L288.00,188.72 L287.54,188.00 L287.54,75.00 L288.19,74.00 L288.53,71.00 L289.48,69.00 L290.56,65.00 L292.45,62.00 L292.55,61.00 L296.52,55.00 L300.02,51.00 L307.00,44.55 L308.00,44.28 L312.00,41.55 L313.00,41.41 L314.00,40.54 L315.00,40.41 L316.00,39.55 L317.00,39.47 L318.00,38.77 L320.00,38.45 L321.00,37.69 L324.00,37.24 L325.00,36.55 L329.00,36.49 L333.00,35.60 L421.00,35.58 L421.42,36.00 L421.71,43.00 L421.50,139.00 L421.44,140.00 L421.00,140.44 L402.00,140.44 L389.56,128.00 L389.42,69.00 L389.00,68.58 L333.00,68.82 L332.00,69.38 L329.00,69.64 L326.55,71.00 L321.54,76.00 L319.53,81.00 L319.56,156.00 L320.00,156.44 L371.00,156.56 L377.00,162.49 L380.00,164.52 L385.00,169.49 L388.00,171.52 L390.44,174.00 L390.45,188.00 Z M421.14,508.00 L420.00,508.54 L418.00,510.43 L417.00,510.55 L416.00,511.45 L415.00,511.72 L413.00,513.44 L412.00,513.56 L410.00,515.42 L409.00,515.55 L407.00,517.28 L406.00,517.55 L396.00,524.45 L395.00,524.62 L393.00,526.45 L392.00,526.59 L390.00,528.44 L389.00,528.46 L388.34,528.00 L388.11,488.00 L388.42,480.00 L388.00,479.58 L278.00,479.57 L277.57,480.00 L277.44,528.00 L277.00,528.44 L245.00,528.45 L244.49,528.00 L243.94,520.00 L244.25,510.00 L244.44,399.00 L245.00,398.55 L276.00,398.50 L277.00,398.56 L277.44,399.00 L277.51,471.00 L278.00,472.70 L302.00,447.56 L388.00,447.27 L388.27,447.00 L387.88,446.00 L388.33,432.00 L388.11,409.00 L388.47,399.00 L389.00,398.55 L421.00,398.56 L421.44,399.00 L421.50,506.00 Z M577.00,188.64 L576.00,189.05 L547.00,189.33 L475.00,189.18 L473.55,188.00 L473.50,159.00 L473.54,158.00 L475.00,156.54 L545.00,156.43 L545.43,156.00 L545.44,82.00 L544.52,80.00 L544.29,78.00 L543.26,76.00 L538.00,70.68 L535.00,69.52 L533.00,69.48 L531.00,68.82 L453.00,68.56 L452.00,68.12 L451.56,67.00 L451.53,38.00 L451.81,37.00 L453.00,35.63 L533.00,35.63 L536.00,36.49 L540.00,36.55 L541.00,37.20 L544.00,37.73 L545.00,38.46 L549.00,39.56 L550.00,40.44 L551.00,40.56 L552.00,41.45 L553.00,41.62 L559.00,45.57 L567.47,54.00 L568.56,56.00 L570.45,58.00 L570.58,59.00 L573.10,63.00 L573.62,65.00 L574.45,66.00 L574.54,67.00 L575.20,68.00 L575.53,70.00 L576.48,72.00 L576.79,75.00 L577.46,76.00 L577.50,187.00 Z M568.45,312.00 L565.00,315.47 L563.00,316.53 L561.00,318.45 L560.00,318.61 L558.00,320.39 L557.00,320.55 L556.00,321.44 L555.00,321.54 L554.00,322.33 L552.00,322.72 L551.00,323.46 L549.00,323.62 L548.00,324.45 L544.00,324.53 L542.00,325.47 L535.00,325.44 L512.00,302.53 L500.00,291.31 L475.00,266.65 L474.65,267.00 L474.44,325.00 L474.00,325.44 L473.00,325.50 L443.00,325.44 L442.56,325.00 L442.56,220.00 L443.00,219.50 L473.00,219.38 L474.89,220.00 L486.50,232.00 L509.00,253.56 L544.00,288.37 L544.38,288.00 L544.54,285.00 L545.49,282.00 L545.56,220.00 L546.00,219.56 L555.00,219.36 L577.00,219.54 L577.44,220.00 L577.47,290.00 L576.52,292.00 L576.46,295.00 L575.70,296.00 L575.21,299.00 L573.65,302.00 L573.33,304.00 L570.62,308.00 L570.45,309.00 L568.74,311.00 Z M412.44,325.00 L412.00,325.44 L329.00,325.49 L326.00,324.51 L323.00,324.44 L322.00,323.56 L320.00,323.45 L319.00,322.65 L317.00,322.44 L316.00,321.56 L315.00,321.44 L314.00,320.56 L313.00,320.45 L312.00,319.57 L311.00,319.45 L310.00,318.55 L309.00,318.28 L306.00,315.80 L305.00,315.46 L296.68,307.00 L296.46,306.00 L294.55,304.00 L294.42,303.00 L291.67,299.00 L290.44,295.00 L289.56,294.00 L289.44,292.00 L288.56,291.00 L288.38,288.00 L287.59,287.00 L287.56,220.00 L288.00,219.55 L312.00,219.31 L319.00,219.56 L319.44,220.00 L319.68,281.00 L320.41,282.00 L320.56,284.00 L321.45,285.00 L321.67,286.00 L325.00,289.49 L328.00,291.44 L331.00,292.48 L412.00,292.56 L412.44,293.00 L412.50,294.00 Z M676.57,613.00 L676.45,612.00 L675.62,611.00 L675.15,608.00 L674.53,607.00 L674.58,585.00 L675.24,584.00 L675.52,582.00 L676.62,579.00 L681.00,574.55 L686.00,572.52 L720.00,572.51 L723.00,573.56 L724.00,574.44 L725.00,574.56 L728.47,578.00 L730.47,582.00 L730.55,584.00 L731.49,587.00 L731.49,605.00 L730.61,608.00 L730.47,610.00 L728.47,614.00 L725.00,617.45 L721.00,619.30 L716.00,619.82 L704.00,619.72 L697.00,620.06 L685.00,619.46 L681.00,617.47 Z M481.00,619.55 L480.55,619.00 L480.50,587.00 L480.56,586.00 L481.00,585.51 L491.00,585.42 L491.62,586.00 L491.92,588.00 L491.68,604.00 L492.08,608.00 L491.68,609.00 L492.00,609.32 L519.00,609.48 L521.00,608.47 L523.35,606.00 L523.52,603.00 L524.21,601.00 L523.47,587.00 L522.47,585.00 L520.00,582.86 L518.00,582.50 L481.00,582.44 L480.56,582.00 L480.50,580.00 L480.56,573.00 L481.00,572.56 L524.00,572.56 L525.00,573.44 L527.00,573.67 L530.00,575.54 L533.33,579.00 L535.48,584.00 L535.84,590.00 L535.83,603.00 L535.44,609.00 L534.55,610.00 L533.45,613.00 L529.00,617.45 L524.00,619.48 L496.00,620.16 L482.00,619.86 Z M184.50,617.00 L183.00,618.14 L180.00,619.48 L164.00,619.96 L154.00,619.71 L144.00,619.98 L139.00,619.46 L138.56,619.00 L138.51,611.00 L139.00,609.75 L176.00,609.44 L177.23,608.00 L177.43,603.00 L175.00,600.59 L147.00,600.48 L144.00,599.44 L141.00,596.84 L138.53,593.00 L138.46,591.00 L137.75,589.00 L137.65,585.00 L138.48,582.00 L138.55,580.00 L139.40,579.00 L139.55,578.00 L143.00,574.53 L146.00,573.39 L147.00,572.55 L186.00,572.56 L186.44,573.00 L186.47,581.00 L185.93,582.00 L185.00,582.47 L151.00,582.56 L149.56,584.00 L149.52,589.00 L149.90,590.00 L151.00,590.49 L155.00,591.00 L165.00,590.67 L177.00,591.13 L181.00,591.55 L182.00,592.33 L183.00,592.55 L184.70,594.00 L187.39,597.00 L187.54,599.00 L188.49,601.00 L188.50,609.00 L187.44,613.00 Z M363.55,613.00 L363.44,612.00 L362.60,611.00 L362.43,609.00 L361.51,606.00 L361.56,573.00 L362.00,572.56 L372.00,572.50 L373.00,572.56 L373.44,573.00 L373.53,606.00 L375.00,608.45 L376.00,608.67 L377.00,609.45 L401.00,609.49 L402.00,609.35 L404.44,607.00 L404.52,605.00 L405.30,603.00 L405.47,573.00 L406.00,572.55 L415.00,572.50 L416.00,572.56 L416.44,573.00 L416.44,608.00 L415.75,609.00 L415.47,611.00 L414.47,613.00 L412.00,616.14 L409.00,618.44 L406.00,619.49 L402.00,619.83 L376.00,620.02 L372.00,619.47 L369.00,618.35 Z M270.00,619.81 L269.50,618.00 L269.44,583.00 L269.00,582.56 L249.00,582.44 L248.56,582.00 L248.50,581.00 L248.56,573.00 L249.00,572.56 L301.00,572.54 L301.50,573.00 L301.68,581.00 L301.00,582.44 L281.00,582.56 L280.56,583.00 L280.44,619.00 L279.00,619.76 Z M719.43,606.00 L719.49,587.00 L718.48,585.00 L716.00,582.71 L690.00,582.61 L687.77,584.00 L686.53,586.00 L685.82,589.00 L685.92,602.00 L686.76,607.00 L688.00,608.44 L689.00,608.56 L690.00,609.44 L715.00,609.49 L716.00,609.29 Z M611.00,619.85 L603.00,619.83 L602.00,619.60 L601.54,619.00 L601.49,573.00 L602.00,572.55 L612.00,572.56 L612.44,573.00 L612.45,619.00 L612.00,619.59 Z"/>
  <path fill="#1677ff" fill-rule="evenodd" d="M449.00,197.39 L417.00,197.45 L416.00,197.39 L415.61,197.00 L415.55,165.00 L415.61,164.00 L416.00,163.61 L449.00,163.60 L449.40,164.00 L449.39,197.00 Z"/>
</svg>