<?xml version="1.0" encoding="UTF-8"?>
<svg xmlns="http://www.w3.org/2000/svg" width="349" height="348" viewBox="0 0 349 348" role="img" aria-label="BHCN Studio logo">
<title>BHCN Studio logo</title>
<desc>Vector trace converted from the provided PNG logo. Transparent background.</desc>
  <path fill="#f6f8fc" fill-rule="evenodd" d="M131.00,180.62 L117.00,181.26 L30.00,181.13 L29.00,180.72 L28.54,180.00 L28.54,67.00 L29.19,66.00 L29.53,63.00 L30.48,61.00 L31.56,57.00 L33.45,54.00 L33.55,53.00 L37.52,47.00 L41.02,43.00 L48.00,36.55 L49.00,36.28 L53.00,33.55 L54.00,33.41 L55.00,32.54 L56.00,32.41 L57.00,31.55 L58.00,31.47 L59.00,30.77 L61.00,30.45 L62.00,29.69 L65.00,29.24 L66.00,28.55 L70.00,28.49 L74.00,27.60 L162.00,27.58 L162.42,28.00 L162.71,35.00 L162.50,131.00 L162.44,132.00 L162.00,132.44 L143.00,132.44 L130.56,120.00 L130.42,61.00 L130.00,60.58 L74.00,60.82 L73.00,61.38 L70.00,61.64 L67.55,63.00 L62.54,68.00 L60.53,73.00 L60.56,148.00 L61.00,148.44 L112.00,148.56 L118.00,154.49 L121.00,156.52 L126.00,161.49 L129.00,163.52 L131.44,166.00 L131.45,180.00 Z M318.00,180.64 L317.00,181.05 L288.00,181.33 L216.00,181.18 L214.55,180.00 L214.50,151.00 L214.54,150.00 L216.00,148.54 L286.00,148.43 L286.43,148.00 L286.44,74.00 L285.52,72.00 L285.29,70.00 L284.26,68.00 L279.00,62.68 L276.00,61.52 L274.00,61.48 L272.00,60.82 L194.00,60.56 L193.00,60.12 L192.56,59.00 L192.53,30.00 L192.81,29.00 L194.00,27.63 L274.00,27.63 L277.00,28.49 L281.00,28.55 L282.00,29.20 L285.00,29.73 L286.00,30.46 L290.00,31.56 L291.00,32.44 L292.00,32.56 L293.00,33.45 L294.00,33.62 L300.00,37.57 L308.48,46.00 L309.56,48.00 L311.45,50.00 L311.58,51.00 L314.10,55.00 L314.62,57.00 L315.45,58.00 L315.54,59.00 L316.20,60.00 L316.53,62.00 L317.48,64.00 L317.79,67.00 L318.46,68.00 L318.50,179.00 Z M309.45,304.00 L306.00,307.47 L304.00,308.53 L302.00,310.45 L301.00,310.61 L299.00,312.39 L298.00,312.55 L297.00,313.44 L296.00,313.54 L295.00,314.33 L293.00,314.72 L292.00,315.46 L290.00,315.62 L289.00,316.45 L285.00,316.53 L283.00,317.47 L276.00,317.44 L253.00,294.53 L241.00,283.31 L216.00,258.65 L215.65,259.00 L215.44,317.00 L215.00,317.44 L214.00,317.50 L184.00,317.44 L183.56,317.00 L183.56,212.00 L184.00,211.50 L214.00,211.38 L215.89,212.00 L227.50,224.00 L250.00,245.56 L285.00,280.37 L285.38,280.00 L285.54,277.00 L286.49,274.00 L286.56,212.00 L287.00,211.56 L296.00,211.36 L318.00,211.54 L318.44,212.00 L318.47,282.00 L317.52,284.00 L317.46,287.00 L316.70,288.00 L316.21,291.00 L314.65,294.00 L314.33,296.00 L311.62,300.00 L311.45,301.00 L309.74,303.00 Z M153.44,317.00 L153.00,317.44 L70.00,317.49 L67.00,316.51 L64.00,316.44 L63.00,315.56 L61.00,315.45 L60.00,314.65 L58.00,314.44 L57.00,313.56 L56.00,313.44 L55.00,312.56 L54.00,312.45 L53.00,311.57 L52.00,311.45 L51.00,310.55 L50.00,310.28 L47.00,307.80 L46.00,307.46 L37.68,299.00 L37.46,298.00 L35.55,296.00 L35.42,295.00 L32.67,291.00 L31.44,287.00 L30.56,286.00 L30.44,284.00 L29.56,283.00 L29.38,280.00 L28.59,279.00 L28.56,212.00 L29.00,211.55 L53.00,211.31 L60.00,211.56 L60.44,212.00 L60.68,273.00 L61.41,274.00 L61.56,276.00 L62.45,277.00 L62.67,278.00 L66.00,281.49 L69.00,283.44 L72.00,284.48 L153.00,284.56 L153.44,285.00 L153.50,286.00 Z"/>
  <path fill="#2b8bff" fill-rule="evenodd" d="M190.00,189.39 L158.00,189.45 L157.00,189.39 L156.61,189.00 L156.55,157.00 L156.61,156.00 L157.00,155.61 L190.00,155.60 L190.40,156.00 L190.39,189.00 Z"/>
</svg>